<svg xmlns="http://www.w3.org/2000/svg" viewBox="0 0 375 375" role="img" aria-label="CaptureAI">
  <title>CaptureAI</title>
  <defs>
    <clipPath id="circle-clip">
      <circle cx="187.5" cy="187.5" r="187.5"/>
    </clipPath>
  </defs>
  <g clip-path="url(#circle-clip)">
    <circle fill="#218aff" cx="187.5" cy="187.5" r="187.5"/>
    <circle fill="#faf9fa" cx="187.5" cy="187.5" r="99.75"/>
    <g fill="none" stroke="#faf9fa" stroke-width="18.75">
      <path d="M0 99.365Q112.838 77.035 225.676 99.365"/>
      <path d="M99.365 375Q77.035 262.162 99.365 149.324"/>
      <path d="M375 275.635Q262.162 297.965 149.324 275.635"/>
      <path d="M275.635 0Q297.965 112.838 275.635 225.676"/>
      <path d="M128.773 3.914Q218.124 60.632 274.843 149.984"/>
      <path d="M3.914 246.227Q60.632 156.876 149.984 100.157"/>
      <path d="M246.227 371.086Q156.876 314.368 100.157 225.016"/>
      <path d="M371.086 128.773Q314.368 218.124 225.016 274.843"/>
    </g>
    <path fill="#35435f" fill-rule="evenodd" d="M187.5 0A187.5 187.5 0 1 0 187.5 375A187.5 187.5 0 1 0 187.5 0ZM187.5 18.75A168.75 168.75 0 1 0 187.5 356.25A168.75 168.75 0 1 0 187.5 18.75Z"/>
    <path fill="#2f4150" transform="translate(101.752 101.752) scale(2.64269)" d="M32.4473 0C33.1278 0 33.7197 0.464783 33.8857 1.125C34.3947 3.14441 35.0586 5.11414 35.8848 7.03027C38.0369 12.0299 40.99 16.406 44.7393 20.1553C48.4903 23.9045 52.8647 26.8576 57.8643 29.0098C59.7821 29.8359 61.7502 30.4998 63.7695 31.0088C64.4297 31.1748 64.8944 31.7668 64.8945 32.4473C64.8945 33.1278 64.4298 33.7198 63.7695 33.8857C61.7502 34.3947 59.7803 35.0586 57.8643 35.8848C52.8646 38.037 48.4885 40.99 44.7393 44.7393C40.99 48.4904 38.037 52.8646 35.8848 57.8643C35.0586 59.7822 34.3947 61.7502 33.8857 63.7695C33.7198 64.4298 33.1278 64.8945 32.4473 64.8945C31.7668 64.8944 31.1748 64.4297 31.0088 63.7695C30.4998 61.7502 29.8359 59.7803 29.0098 57.8643C26.8576 52.8647 23.9063 48.4885 20.1553 44.7393C16.4041 40.99 12.0299 38.0369 7.03027 35.8848C5.1123 35.0586 3.14441 34.3947 1.125 33.8857C0.464783 33.7197 0 33.1278 0 32.4473C8.67651e-05 31.7668 0.464826 31.1748 1.125 31.0088C3.14442 30.4998 5.11413 29.836 7.03027 29.0098C12.03 26.8575 16.406 23.9046 20.1553 20.1553C23.9046 16.406 26.8575 12.03 29.0098 7.03027C29.836 5.11229 30.4998 3.14442 31.0088 1.125C31.1748 0.464826 31.7668 8.67651e-05 32.4473 0Z"/>
  </g>
</svg>
